<svg xmlns="http://www.w3.org/2000/svg" id="root" width="500" height="500" style="background-color:#262a2b" version="1.2"><style id="style">tspan{white-space:pre}</style><path id="rect850" d="M.5.5h499v499H.5z" style="fill:#262a2b;stroke:#000;stroke-width:.999999;paint-order:stroke fill markers"/><text id="d-sharp" x="-27.6" y="213.3" style="font-size:300px"><tspan id="text-d" x="-1.6" y="352.3" style="font-style:normal;font-variant:normal;font-weight:400;font-stretch:normal;font-size:300px;font-family:Nunito;-inkscape-font-specification:&quot;Nunito, @wght=500&quot;;font-variant-ligatures:normal;font-variant-caps:normal;font-variant-numeric:normal;font-variant-east-asian:normal;font-variation-settings:&quot;wght&quot;500;fill:#fff;stroke:#7289da;stroke-width:10;stroke-linejoin:round;paint-order:stroke fill markers">D#</tspan></text><text id="plus" x="-10" y="106.8"><tspan id="text-plus" x="369" y="147.8" style="font-style:normal;font-variant:normal;font-weight:400;font-stretch:normal;font-size:200px;font-family:Nunito;-inkscape-font-specification:&quot;Nunito, @wght=500&quot;;font-variant-ligatures:normal;font-variant-caps:normal;font-variant-numeric:normal;font-variant-east-asian:normal;font-variation-settings:&quot;wght&quot;500;fill:#7289da">+</tspan></text><g id="g1332" style="stroke-width:.144" transform="translate(225 258.333) scale(6.94444)"><path id="path1317" fill="#3b88c3" d="M14 19a6 6 0 1 0 0 12 6 6 0 0 0 0-12zm0 10a4 4 0 1 1 0-8 4 4 0 0 1 0 8z" style="stroke-width:.01728"/><path id="path1319" fill="#55acee" d="M1.783 14.023v.02C.782 14.263 0 15.939 0 18s.782 3.737 1.783 3.956v.021l28.701 7.972V6.064Z" style="stroke-width:.01728"/><ellipse id="ellipse1321" cx="31" cy="18" fill="#269" rx="5" ry="12" style="stroke-width:.01728"/></g></svg>