<?xml version="1.0" encoding="UTF-8" standalone="no"?>
<svg
   id="root"
   width="500"
   height="500"
   style="background-color:#262a2b"
   version="1.2"
   sodipodi:docname="commandall.svg"
   inkscape:export-filename="/home/lunar/Downloads/d#+.png"
   inkscape:export-xdpi="98.300003"
   inkscape:export-ydpi="98.300003"
   inkscape:version="1.1.1 (3bf5ae0d25, 2021-09-20)"
   xmlns:inkscape="http://www.inkscape.org/namespaces/inkscape"
   xmlns:sodipodi="http://sodipodi.sourceforge.net/DTD/sodipodi-0.dtd"
   xmlns="http://www.w3.org/2000/svg"
   xmlns:svg="http://www.w3.org/2000/svg">
  <defs
     id="defs11" />
  <sodipodi:namedview
     id="namedview9"
     pagecolor="#ffffff"
     bordercolor="#666666"
     borderopacity="1.0"
     inkscape:pageshadow="2"
     inkscape:pageopacity="0.0"
     inkscape:pagecheckerboard="0"
     showgrid="false"
     inkscape:showpageshadow="false"
     inkscape:zoom="1.26"
     inkscape:cx="249.60317"
     inkscape:cy="248.01587"
     inkscape:window-width="1920"
     inkscape:window-height="1007"
     inkscape:window-x="0"
     inkscape:window-y="0"
     inkscape:window-maximized="1"
     inkscape:current-layer="root" />
  <style
     id="style">tspan{white-space:pre}</style>
  <rect
     style="fill:#262a2b;stroke:#000000;stroke-width:0.999999;paint-order:stroke fill markers"
     id="rect850"
     height="499"
     x="0.5"
     y="0.5"
     width="499"
     inkscape:label="background" />
  <text
     id="d-sharp"
     x="-27.6"
     y="213.3"
     style="font-size:300px"><tspan
       id="text-d"
       x="-1.6"
       y="352.29999"
       style="font-style:normal;font-variant:normal;font-weight:normal;font-stretch:normal;font-size:300px;font-family:Nunito;-inkscape-font-specification:'Nunito, @wght=500';font-variant-ligatures:normal;font-variant-caps:normal;font-variant-numeric:normal;font-variant-east-asian:normal;font-variation-settings:'wght' 500;fill:#ffffff;stroke:#7289da;stroke-width:10;stroke-linejoin:round;paint-order:stroke fill markers">D#</tspan></text>
  <text
     id="plus"
     x="-10"
     y="106.8"><tspan
       id="text-plus"
       x="369"
       y="147.8"
       style="font-style:normal;font-variant:normal;font-weight:normal;font-stretch:normal;font-size:200px;font-family:Nunito;-inkscape-font-specification:'Nunito, @wght=500';font-variant-ligatures:normal;font-variant-caps:normal;font-variant-numeric:normal;font-variant-east-asian:normal;font-variation-settings:'wght' 500;fill:#7289da">+</tspan></text>
  <g
     id="g1332"
     transform="matrix(6.9444444,0,0,6.94444,225,258.33336)"
     style="stroke-width:0.144">
    <path
       fill="#3b88c3"
       d="m 14,19 c -3.314,0 -6,2.687 -6,6 0,3.313 2.686,6 6,6 3.314,0 6,-2.687 6,-6 0,-3.313 -2.687,-6 -6,-6 z m 0,10 c -2.209,0 -4,-1.791 -4,-4 0,-2.209 1.791,-4 4,-4 2.209,0 4,1.791 4,4 0,2.209 -1.791,4 -4,4 z"
       id="path1317"
       style="stroke-width:0.01728" />
    <path
       fill="#55acee"
       d="m 1.783,14.023 v 0.02 C 0.782,14.263 0,15.939 0,18 c 0,2.061 0.782,3.737 1.783,3.956 v 0.021 l 28.701,7.972 V 6.064 Z"
       id="path1319"
       style="stroke-width:0.01728" />
    <ellipse
       fill="#226699"
       cx="31"
       cy="18"
       rx="5"
       ry="12"
       id="ellipse1321"
       style="stroke-width:0.01728" />
  </g>
</svg>
